{"title":"UP 2009 1080p BluRay 5.1Hindi + 5.1English By Ashish7(wall.e)","uid":7482043,"size":4555266003,"categoryP":"video","categoryS":"hd___movies","magnet":"?xt=urn:btih:9ea4c8d051f3adcd5dec4ca494d94cb9cb05718e&amp;dn=UP+2009+1080p+BluRay+5.1Hindi+%2B+5.1English+By+Ashish7%28wall.e%29&amp;tr=udp%3A%2F%2Ftracker.openbittorrent.com%3A80&amp;tr=udp%3A%2F%2Fopen.demonii.com%3A1337&amp;tr=udp%3A%2F%2Ftracker.coppersurfer.tk%3A6969&amp;tr=udp%3A%2F%2Fexodus.desync.com%3A6969","seeders":0,"leechers":1,"uploader":"wall.e","files":13,"time":1343462376,"description":"Format                           : Matroska\nFile size                        : 4.20 GiB\nDuration                         : 1h 36mn\nOverall bit rate                 : 6216 Kbps\n\nVideo\nID                               : 1\nFormat                           : AVC\nFormat/Info                      : Advanced Video Codec\nBit rate                         : 4965 Kbps\nMaximum bit rate                 : 25.0 Mbps\nWidth                            : 1920 pixels\nHeight                           : 1080 pixels\nDisplay aspect ratio             : 16:9\nFrame rate                       : 23.976 fps\nColor space                      : YUV\nChroma subsampling               : 4:2:0\nStream size                      : 3.25 GiB (77%)\nTitle                            : 1080p BluRay By Ashish7(wall.e)\n\nAudio #1\nID                               : 2\nFormat                           : AC-3\nFormat/Info                      : Audio Coding 3\nBit rate                         : 640 Kbps\nChannel(s)                       : 6 channels\nChannel positions                : Front: L C R, Side: L R, LFE\nSampling rate                    : 48.0 KHz\nBit depth                        : 16 bits\nStream size                      : 442 MiB (10%)\nTitle                            : 5.1 Hindi Audio By Ashish7(wall.e)\n\nAudio #2\nID                               : 3\nFormat                           : AC-3\nFormat/Info                      : Audio Coding 3\nBit rate                         : 640 Kbps\nChannel(s)                       : 6 channels\nChannel positions                : Front: L C R, Side: L R, LFE\nSampling rate                    : 48.0 KHz\nBit depth                        : 16 bits\nStream size                      : 442 MiB (10%)\nTitle                            : 5.1 English Audio By Ashish7(wall.e)","torrent":{"xt":"urn:btih:9ea4c8d051f3adcd5dec4ca494d94cb9cb05718e","amp;dn":"UP+2009+1080p+BluRay+5.1Hindi+%2B+5.1English+By+Ashish7%28wall.e%29","amp;tr":["udp%3A%2F%2Ftracker.openbittorrent.com%3A80","udp%3A%2F%2Fopen.demonii.com%3A1337","udp%3A%2F%2Ftracker.coppersurfer.tk%3A6969","udp%3A%2F%2Fexodus.desync.com%3A6969"],"infoHash":"9ea4c8d051f3adcd5dec4ca494d94cb9cb05718e","infoHashBuffer":{"type":"Buffer","data":[158,164,200,208,81,243,173,205,93,236,76,164,148,217,76,185,203,5,113,142]},"announce":[],"urlList":[]}}